<svg width="24" height="25" viewBox="0 0 24 25" fill="none" xmlns="http://www.w3.org/2000/svg">
<g id="icon Rating">
<path id="Vector" d="M13.0761 0.740206L15.8553 6.63106C16.0304 7.00035 16.3665 7.25737 16.7591 7.31646L22.9727 8.26183C23.9556 8.4125 24.3482 9.67693 23.6365 10.4007L19.1401 14.9858C18.8576 15.2753 18.7277 15.6889 18.7955 16.0966L19.8574 22.5695C20.0241 23.5946 18.996 24.3745 18.1176 23.893L12.5592 20.8353C12.209 20.6433 11.791 20.6433 11.4436 20.8353L5.88238 23.893C5.00117 24.3775 3.9731 23.5946 4.14256 22.5695L5.20453 16.0966C5.27231 15.6889 5.14239 15.2753 4.85995 14.9858L0.363531 10.4007C-0.348214 9.67398 0.0443755 8.40954 1.02726 8.26183L7.24091 7.31646C7.63068 7.25737 7.9696 7.00035 8.14471 6.63106L10.9239 0.740206C11.3645 -0.19335 12.6355 -0.19335 13.0761 0.740206Z" fill="#5E00FF"/>
</g>
</svg>
