<svg width="20" height="22" viewBox="0 0 20 22" fill="none" xmlns="http://www.w3.org/2000/svg">
<path d="M10.0474 19.4736C8.87972 19.4736 7.78402 19.2523 6.76025 18.8096C5.73649 18.3724 4.83724 17.7664 4.0625 16.9917C3.28776 16.2114 2.67904 15.3122 2.23633 14.2939C1.79915 13.2702 1.58057 12.1745 1.58057 11.0068C1.58057 9.83919 1.79915 8.74349 2.23633 7.71973C2.67904 6.69596 3.28776 5.79671 4.0625 5.02197C4.83724 4.24723 5.73649 3.64128 6.76025 3.2041C7.78402 2.76139 8.87972 2.54004 10.0474 2.54004C11.215 2.54004 12.3107 2.76139 13.3345 3.2041C14.3582 3.64128 15.2575 4.24723 16.0322 5.02197C16.807 5.79671 17.4129 6.69596 17.8501 7.71973C18.2928 8.74349 18.5142 9.83919 18.5142 11.0068C18.5142 12.1745 18.2928 13.2702 17.8501 14.2939C17.4129 15.3122 16.807 16.2114 16.0322 16.9917C15.2575 17.7664 14.3582 18.3724 13.3345 18.8096C12.3107 19.2523 11.215 19.4736 10.0474 19.4736ZM7.2583 14.4932C7.45752 14.4932 7.6263 14.4268 7.76465 14.2939L10.0557 11.9863L12.355 14.2939C12.4823 14.4268 12.6455 14.4932 12.8447 14.4932C13.0384 14.4932 13.2017 14.4268 13.3345 14.2939C13.4673 14.1556 13.5337 13.9924 13.5337 13.8042C13.5337 13.5994 13.4673 13.4362 13.3345 13.3145L11.0269 11.0151L13.3428 8.70752C13.4756 8.56917 13.542 8.40592 13.542 8.21777C13.542 8.02962 13.4756 7.86914 13.3428 7.73633C13.21 7.60352 13.0495 7.53711 12.8613 7.53711C12.6787 7.53711 12.521 7.60352 12.3882 7.73633L10.0557 10.0522L7.73975 7.74463C7.6014 7.61735 7.44092 7.55371 7.2583 7.55371C7.07015 7.55371 6.90967 7.62012 6.77686 7.75293C6.64404 7.88021 6.57764 8.04069 6.57764 8.23438C6.57764 8.41699 6.64404 8.57747 6.77686 8.71582L9.08447 11.0151L6.77686 13.3228C6.64404 13.4556 6.57764 13.616 6.57764 13.8042C6.57764 13.9924 6.64404 14.1556 6.77686 14.2939C6.90967 14.4268 7.07015 14.4932 7.2583 14.4932Z" fill="#3339B0"/>
</svg>
