<svg width="90" height="52" viewBox="0 0 90 52" fill="none" xmlns="http://www.w3.org/2000/svg">
<g id="button Favourite ">
<rect x="0.5" y="0.5" width="89" height="51" rx="14.5" stroke="#3339B0"/>
<path id="Vector" d="M52.7996 19.2094C52.3348 18.7489 51.7828 18.3836 51.1754 18.1343C50.5679 17.8851 49.9168 17.7568 49.2592 17.7568C48.6017 17.7568 47.9506 17.8851 47.3431 18.1343C46.7356 18.3836 46.1837 18.7489 45.7189 19.2094L44.7541 20.1646L43.7894 19.2094C42.8504 18.2796 41.5769 17.7573 40.249 17.7573C38.9211 17.7573 37.6476 18.2796 36.7087 19.2094C35.7697 20.1391 35.2422 21.4001 35.2422 22.715C35.2422 24.0298 35.7697 25.2908 36.7087 26.2206L37.6734 27.1758L44.7541 34.187L51.8349 27.1758L52.7996 26.2206C53.2647 25.7603 53.6336 25.2138 53.8853 24.6123C54.137 24.0108 54.2666 23.3661 54.2666 22.715C54.2666 22.0639 54.137 21.4192 53.8853 20.8177C53.6336 20.2162 53.2647 19.6697 52.7996 19.2094V19.2094Z" stroke="#3339B0" stroke-width="1.72949" stroke-linecap="round" stroke-linejoin="round"/>
</g>
</svg>
