<svg width="334" height="649" viewBox="0 0 334 649" fill="none" xmlns="http://www.w3.org/2000/svg">
<g filter="url(#filter0_f_40000072_483)">
<path d="M92 118.461C92 99.1307 76.33 83.4607 57 83.4607C37.67 83.4607 22 99.1307 22 118.461L92 118.461ZM22 118.461L22 694L92 694L92 118.461L22 118.461Z" fill="#697EEA" fill-opacity="0.7"/>
<path d="M202 57C202 37.67 186.33 22 167 22C147.67 22 132 37.67 132 57L202 57ZM132 57L132 694L202 694L202 57L132 57Z" fill="#697EEA" fill-opacity="0.7"/>
<path d="M312 118.411C312 99.0812 296.33 83.4111 277 83.4111C257.67 83.4111 242 99.0812 242 118.411L312 118.411ZM242 118.411L242 693.602L312 693.602L312 118.411L242 118.411Z" fill="#697EEA" fill-opacity="0.7"/>
</g>
<defs>
<filter id="filter0_f_40000072_483" x="0.1" y="0.1" width="333.8" height="715.8" filterUnits="userSpaceOnUse" color-interpolation-filters="sRGB">
<feFlood flood-opacity="0" result="BackgroundImageFix"/>
<feBlend mode="normal" in="SourceGraphic" in2="BackgroundImageFix" result="shape"/>
<feGaussianBlur stdDeviation="10.95" result="effect1_foregroundBlur_40000072_483"/>
</filter>
</defs>
</svg>
