<svg width="23" height="49" viewBox="0 0 23 49" fill="none" xmlns="http://www.w3.org/2000/svg">
<g id="popsicle">
<path id="Vector" fill-rule="evenodd" clip-rule="evenodd" d="M8.3315 35.2148V46.726C8.3315 47.7056 9.24197 48.5 10.3633 48.5H13.3047C14.426 48.5 15.3365 47.7056 15.3365 46.726V35.2148C19.6929 33.9364 22.834 30.3413 22.834 26.1104V10.102C22.834 4.80237 17.905 0.5 11.834 0.5C5.76294 0.5 0.833984 4.80237 0.833984 10.102V26.1104C0.833984 30.3413 3.97511 33.9364 8.3315 35.2148ZM14.2142 35.4871C13.4476 35.635 12.6512 35.7124 11.834 35.7124C11.0168 35.7124 10.2203 35.635 9.45373 35.4871V46.726C9.45373 47.1648 9.86133 47.5204 10.3633 47.5204H13.3047C13.8066 47.5204 14.2142 47.1648 14.2142 46.726V35.4871ZM21.7118 10.102V26.1104C21.7118 30.8703 17.2857 34.7328 11.834 34.7328C6.3823 34.7328 1.95622 30.8703 1.95622 26.1104V10.102C1.95622 5.3431 6.3823 1.47959 11.834 1.47959C17.2857 1.47959 21.7118 5.3431 21.7118 10.102ZM20.3248 13.939V10.5565C20.3248 8.42294 19.2895 6.49804 17.6337 5.14523C17.4075 4.96009 17.0521 4.97086 16.8406 5.16776C16.6289 5.36563 16.6407 5.67518 16.8667 5.86032C18.3039 7.03387 19.2026 8.70506 19.2026 10.5565V13.939C19.2026 14.2094 19.454 14.4288 19.7637 14.4288C20.0734 14.4288 20.3248 14.2094 20.3248 13.939ZM15.6911 3.95306C15.0235 3.65527 14.3049 3.43192 13.5499 3.29674C13.2465 3.24188 12.9496 3.4133 12.8872 3.67779C12.8248 3.94228 13.0205 4.20187 13.3239 4.25575C13.9785 4.3733 14.6015 4.56727 15.1803 4.8249C15.456 4.94833 15.7943 4.8533 15.9353 4.61232C16.0762 4.37135 15.9668 4.07649 15.6911 3.95306Z" fill="#000CFF"/>
</g>
</svg>
