<svg width="43" height="49" viewBox="0 0 43 49" fill="none" xmlns="http://www.w3.org/2000/svg">
<g id="basket">
<path id="Vector" fill-rule="evenodd" clip-rule="evenodd" d="M7.41812 15.4789H6.86861C5.03658 15.4789 3.55051 17.0031 3.55051 18.88V19.0485C3.55051 19.9958 3.92896 20.8539 4.53964 21.4701H3.81906C1.98703 21.4701 0.5 22.9943 0.5 24.8722V25.0397C0.5 26.4327 1.31902 27.6317 2.48972 28.1568C2.60727 30.4294 4.34085 32.2662 6.53316 32.4817L7.52612 41.8143C7.52612 41.8182 7.52708 41.8221 7.52708 41.826L8.19127 48.0631C8.21707 48.3119 8.42254 48.5 8.66624 48.5H34.3338C34.5784 48.5 34.7829 48.3119 34.8087 48.0631L35.1184 45.1576C35.1184 45.1537 35.1193 45.1498 35.1193 45.1459L35.9116 37.699C35.9125 37.6951 35.9125 37.6912 35.9135 37.6872L36.4668 32.4817C38.6592 32.2662 40.3918 30.4304 40.5103 28.1568C41.681 27.6317 42.5 26.4327 42.5 25.0397V24.8722C42.5 22.9943 41.013 21.4701 39.1809 21.4701H38.4604C39.071 20.8539 39.4505 19.9958 39.4505 19.0485V18.88C39.4505 17.0031 37.9634 15.4789 36.1314 15.4789H35.1394C36.8319 10.6328 34.3156 3.82073 29.8316 0.589047C29.7083 0.499904 29.5516 0.47639 29.4092 0.52439C29.2658 0.571411 29.1531 0.686025 29.1043 0.831984C27.1729 6.65469 22.3305 7.95266 17.7767 8.97927C15.3837 9.51903 13.0604 9.98236 11.215 10.9032C9.36961 11.824 7.98484 13.1886 7.41812 15.4789ZM8.43019 41.2765H13.3185C13.5822 41.2765 13.7963 41.4959 13.7963 41.7663C13.7963 42.0366 13.5822 42.2561 13.3185 42.2561H8.53437L9.09438 47.5204H33.9056L34.1111 45.5886H30.7452C30.4814 45.5886 30.2674 45.3692 30.2674 45.0989C30.2674 44.8285 30.4814 44.6091 30.7452 44.6091H34.2153L34.9043 38.129H29.2515C28.9877 38.129 28.7737 37.9096 28.7737 37.6392C28.7737 37.3689 28.9877 37.1494 29.2515 37.1494H35.0094L35.5035 32.5022H20.4316C20.358 32.6198 20.2997 32.7462 20.2729 32.8872C20.1955 33.28 20.3417 33.6758 20.4574 34.0706C20.6237 34.6397 20.7488 35.2049 20.5854 35.7496C20.3264 36.6126 19.3325 37.6696 18.0223 37.5981C17.1985 37.553 16.6127 37.0701 16.2199 36.4823C15.8653 35.9504 15.6771 35.3372 15.6025 34.9689C15.4965 34.4379 15.6561 33.6004 15.6522 32.8402C15.6494 32.3455 15.5844 31.8694 15.053 31.7264C14.9909 31.7098 14.9431 31.696 14.9049 31.7137C14.8437 31.7411 14.8351 31.8214 14.8122 31.8959C14.7721 32.0232 14.7491 32.1663 14.7309 32.3034C14.6631 32.805 14.5054 33.5024 14.1814 34.0177C13.9148 34.4409 13.5431 34.7475 13.0509 34.8268C12.5816 34.9023 11.949 34.8288 11.4291 34.5878C11.0411 34.4076 10.7181 34.1352 10.5317 33.7865C10.2909 33.332 10.3262 32.9107 10.4801 32.5022H7.49649L8.43019 41.2765ZM17.2377 41.2765H15.7334C15.4697 41.2765 15.2556 41.4959 15.2556 41.7663C15.2556 42.0366 15.4697 42.2561 15.7334 42.2561H17.2377C17.5014 42.2561 17.7155 42.0366 17.7155 41.7663C17.7155 41.4959 17.5014 41.2765 17.2377 41.2765ZM21.2133 27.4622H39.1809C40.4854 27.4622 41.5443 26.3769 41.5443 25.0397V24.8722C41.5443 23.5351 40.4854 22.4497 39.1809 22.4497H3.81906C2.51456 22.4497 1.45567 23.5351 1.45567 24.8722V25.0397C1.45567 26.3769 2.51456 27.4622 3.81906 27.4622H8.43784C8.46269 27.4613 8.48658 27.4632 8.51047 27.4662C8.59075 27.4769 8.66434 27.5083 8.72646 27.5543C8.78858 27.6004 8.84112 27.6621 8.87648 27.7365C8.88699 27.7591 8.89655 27.7836 8.9042 27.808C9.01697 28.1636 9.03418 28.625 9.09916 29.059C9.14025 29.3333 9.18231 29.6036 9.39256 29.7565C9.54165 29.8652 9.70219 29.8828 9.85892 29.8867C10.0176 29.8897 10.1762 29.8769 10.3291 29.874C10.8987 29.8642 11.4138 29.9592 11.7932 30.7253C12.0493 31.2425 11.9327 31.7264 11.6957 32.2035C11.6909 32.2133 11.6862 32.2221 11.6824 32.2309C11.6795 32.2358 11.6766 32.2407 11.6737 32.2456C11.583 32.4249 11.4778 32.6022 11.3995 32.7844C11.3268 32.9538 11.2705 33.1282 11.3708 33.3173C11.4625 33.4887 11.6336 33.6072 11.8238 33.6954C12.1697 33.8561 12.5902 33.9099 12.9028 33.859C13.1866 33.8139 13.3529 33.5671 13.48 33.2987C13.6549 32.9303 13.7399 32.4944 13.7839 32.1682C13.8231 31.8841 13.8842 31.5873 13.997 31.3532C14.1059 31.1279 14.2608 30.9525 14.4634 30.8448C14.6717 30.7331 14.9412 30.6841 15.2948 30.7791C16.1434 31.0064 16.4798 31.6059 16.5773 32.3485C16.6347 32.7912 16.5974 33.2908 16.5573 33.763C16.5257 34.145 16.4856 34.5045 16.5391 34.772C16.5955 35.0531 16.7379 35.5223 17.0093 35.9289C17.2434 36.2806 17.5808 36.5921 18.0739 36.6195C18.892 36.6645 19.5103 36.0004 19.6727 35.4616C19.7807 35.1001 19.6517 34.7298 19.5418 34.3527C19.3803 33.8022 19.2274 33.2428 19.3354 32.6933C19.4061 32.3338 19.581 32.0232 19.797 31.7342C19.8065 31.7196 19.8171 31.7058 19.8285 31.6921C19.8744 31.6314 19.9231 31.5716 19.9728 31.5119C20.1888 31.2523 20.4306 31.0084 20.5759 30.7164C20.9992 29.8671 20.9075 28.9483 20.7374 28.0539C20.7336 28.0353 20.7307 28.0177 20.7288 27.9991V27.9981C20.7249 27.9501 20.7269 27.9021 20.7364 27.856C20.7517 27.7757 20.7871 27.7013 20.8358 27.6405L20.8368 27.6396C20.8855 27.5788 20.9495 27.5289 21.0241 27.4985C21.0661 27.4809 21.111 27.4691 21.1588 27.4642C21.1779 27.4622 21.1961 27.4613 21.2133 27.4622ZM39.526 28.4232C39.4122 28.435 39.2975 28.4418 39.1809 28.4418H21.7686C21.8909 29.3636 21.8612 30.2913 21.4274 31.1622C21.3652 31.2876 21.2897 31.4071 21.2066 31.5227H36.0301H36.0406C37.8143 31.5197 39.2823 30.1728 39.526 28.4232ZM3.47405 28.4232C3.71775 30.1728 5.18664 31.5207 6.95942 31.5227H6.96991H10.9474C10.9876 31.408 11.0019 31.2924 10.9417 31.169C10.7401 30.7625 10.4237 30.8497 10.1131 30.8614C9.68691 30.8781 9.25112 30.8536 8.84018 30.5558C8.4904 30.3021 8.30307 29.922 8.2056 29.4841C8.1301 29.1481 8.11959 28.772 8.06894 28.4418H3.81906C3.70246 28.4418 3.58777 28.435 3.47405 28.4232ZM36.1314 16.4585H6.86861C5.56411 16.4585 4.50618 17.5439 4.50618 18.88V19.0485C4.50618 20.3847 5.56411 21.4701 6.86861 21.4701H36.1314C37.4359 21.4701 38.4948 20.3847 38.4948 19.0485V18.88C38.4948 17.5439 37.4359 16.4585 36.1314 16.4585ZM34.1159 15.4789H8.41012C8.9367 13.651 10.1074 12.545 11.6327 11.7838C13.4179 10.8934 15.6675 10.4584 17.9822 9.93632C22.6745 8.87738 27.5943 7.46384 29.7847 1.77533C32.1433 3.69534 33.8473 6.68996 34.4675 9.71299C34.8804 11.727 34.8135 13.7558 34.1159 15.4789Z" fill="#000CFF"/>
</g>
</svg>
