<svg width="23" height="49" viewBox="0 0 23 49" fill="none" xmlns="http://www.w3.org/2000/svg">
<g id="cone">
<path id="Vector" fill-rule="evenodd" clip-rule="evenodd" d="M6.56665 8.60051C5.39689 8.83659 4.51404 9.89063 4.51404 11.1543C4.51404 11.7969 4.7434 12.3866 5.12244 12.8411C3.98531 13.1017 3.13412 14.1401 3.13412 15.3802C3.13412 16.0023 3.34812 16.5743 3.70606 17.022C2.44033 17.1748 1.45769 18.2749 1.45769 19.6071C1.45769 20.2733 1.70431 20.8816 2.10831 21.342C1.17557 21.6466 0.5 22.539 0.5 23.5911C0.5 24.8254 1.42986 25.8393 2.6121 25.9441L11.0528 48.1875C11.1238 48.3756 11.3014 48.5 11.5 48.5C11.6986 48.5 11.8762 48.3756 11.9472 48.1875L20.3879 25.9441C21.5702 25.8393 22.5 24.8254 22.5 23.5911C22.5 22.539 21.8244 21.6466 20.8917 21.342C21.2957 20.8816 21.5423 20.2733 21.5423 19.6071C21.5423 18.2749 20.5597 17.1748 19.294 17.022C19.6519 16.5743 19.8659 16.0023 19.8659 15.3802C19.8659 14.1401 19.0147 13.1017 17.8776 12.8411C18.2566 12.3866 18.486 11.7969 18.486 11.1543C18.486 9.88671 17.5974 8.83072 16.4228 8.59856C16.3345 7.42305 15.4325 6.74028 14.4374 6.06828C13.7868 5.62943 13.0958 5.19449 12.7897 4.46568C12.4855 3.73981 12.5968 2.75141 13.401 1.22228C13.4912 1.05183 13.4739 0.844151 13.3588 0.691336C13.2436 0.538521 13.0517 0.468975 12.8684 0.513057C10.5279 1.07926 8.90426 2.2097 7.88899 3.69573C6.95242 5.06715 6.53114 6.74909 6.56665 8.60051ZM14.4623 25.9529C14.4556 26.2007 14.4403 26.4613 14.4067 26.5808C14.2858 27.0108 14.0823 27.2763 13.8453 27.4497C13.6131 27.6182 13.3386 27.6995 13.0392 27.7269C12.7197 27.7573 12.3646 27.7181 12.0278 27.7436C11.8196 27.7592 11.6161 27.7965 11.4655 27.9747C11.334 28.1305 11.4348 28.2892 11.5134 28.4459C11.6315 28.681 11.7812 28.9132 11.8704 29.1326C12.0834 29.6577 12.1142 30.5246 11.8762 31.2201C11.6948 31.7501 11.3618 32.1752 10.8954 32.3574C10.5442 32.4955 10.0759 32.4524 9.71993 32.3711C9.44068 32.3084 9.15856 32.2026 8.91098 32.0547C7.94657 31.4738 7.92162 30.5902 8.04829 29.6459C8.09531 29.2972 8.16153 28.9426 8.15769 28.6066C8.15385 28.3607 8.11258 28.1266 7.94945 27.9297C7.90819 27.8807 7.8698 27.8415 7.83142 27.8121C7.82278 27.8063 7.80838 27.7974 7.79975 27.7925C7.76808 27.8161 7.60016 27.9395 7.50899 28.0335C7.22495 28.3284 6.92554 28.6409 6.61271 28.7418C5.25006 29.1806 4.15131 27.7935 4.32116 26.5798C4.34515 26.4074 4.38067 26.1801 4.42673 25.9529H3.64464L5.25295 30.1925H7.06948C7.33434 30.1925 7.54929 30.412 7.54929 30.6823C7.54929 30.9527 7.33434 31.1721 7.06948 31.1721H5.62528L11.5 46.6545L15.6503 35.7174H12.4097C12.1449 35.7174 11.9299 35.497 11.9299 35.2276C11.9299 34.9572 12.1449 34.7378 12.4097 34.7378H16.0217L18.3555 28.587H15.039C14.7742 28.587 14.5592 28.3676 14.5592 28.0972C14.5592 27.8268 14.7742 27.6074 15.039 27.6074H18.7268L19.3554 25.9529H14.4623ZM20.1221 24.9772C20.1384 24.9753 20.1547 24.9743 20.171 24.9733H20.2133C20.2363 24.9723 20.2593 24.9713 20.2824 24.9694C20.361 24.9645 20.4397 24.9518 20.5165 24.9322C20.6681 24.893 20.813 24.8264 20.9435 24.7372C21.1115 24.6207 21.2544 24.4659 21.3562 24.2866C21.4377 24.1446 21.4934 23.9888 21.5203 23.8272C21.5462 23.6773 21.5462 23.5225 21.5231 23.3727C21.5039 23.2463 21.4665 23.1238 21.4137 23.0083C21.3341 22.8349 21.2189 22.6781 21.0779 22.5527C20.9493 22.4362 20.7986 22.3461 20.6364 22.2883C20.4925 22.2363 20.3399 22.2099 20.1864 22.2099C14.3952 22.2099 8.60486 22.2099 2.81362 22.2099C2.66008 22.2099 2.50847 22.2363 2.36357 22.2883C2.20139 22.3461 2.05072 22.4362 1.92214 22.5527C1.78107 22.6781 1.66592 22.8349 1.58627 23.0083C1.53349 23.1238 1.49608 23.2463 1.47689 23.3727C1.45386 23.5225 1.45385 23.6773 1.47976 23.8272C1.50663 23.9888 1.56229 24.1446 1.64386 24.2866C1.74558 24.4659 1.88855 24.6207 2.05648 24.7372C2.18699 24.8264 2.3319 24.893 2.48352 24.9322C2.56029 24.9518 2.63897 24.9645 2.71766 24.9694C2.74069 24.9713 2.76372 24.9723 2.78675 24.9733H2.82897C2.84529 24.9743 2.8616 24.9753 2.87792 24.9772L2.87888 24.9782C2.90095 24.9753 2.92205 24.9733 2.94412 24.9733H5.04183C5.07446 24.9723 5.10804 24.9753 5.14067 24.9821C5.18673 24.9909 5.23087 25.0066 5.27214 25.0282C5.34411 25.0664 5.40361 25.1222 5.44775 25.1878C5.49094 25.2525 5.51972 25.3299 5.52836 25.4131C5.53315 25.4592 5.53123 25.5072 5.52163 25.5542C5.51588 25.5875 5.50629 25.6198 5.49477 25.6502C5.38826 25.9294 5.31244 26.4221 5.27118 26.717C5.18961 27.3008 5.66942 28.0188 6.32292 27.8082C6.41504 27.7779 6.49181 27.6926 6.57529 27.6084C6.72595 27.4575 6.87277 27.2871 7.02439 27.1529C7.26237 26.9432 7.51763 26.8149 7.78248 26.81C8.05117 26.8051 8.36016 26.9099 8.68067 27.2959C8.99734 27.677 9.11058 28.1188 9.1173 28.5929C9.1221 28.9759 9.053 29.3814 8.99926 29.7791C8.92537 30.3277 8.83901 30.8743 9.39846 31.2103C9.55967 31.3073 9.74488 31.3739 9.9272 31.4151C10.1172 31.4582 10.3648 31.516 10.5519 31.4435C10.7649 31.3592 10.8878 31.1398 10.9703 30.8969C11.1286 30.4345 11.1258 29.8575 10.9837 29.5078C10.8782 29.2472 10.6786 28.969 10.5653 28.6869C10.384 28.2353 10.3629 27.7788 10.74 27.3341C11.1613 26.8365 11.7399 26.7522 12.3339 26.7571C12.5268 26.7581 12.7197 26.7669 12.902 26.7561C13.0584 26.7454 13.2081 26.7297 13.3194 26.6259C13.3933 26.5573 13.4442 26.4535 13.4845 26.3104C13.5305 26.1478 13.5085 25.6326 13.5075 25.465C13.5066 25.1947 13.7205 24.9743 13.9854 24.9733H13.9892H20.0559C20.078 24.9733 20.0991 24.9753 20.1211 24.9782L20.1221 24.9772ZM15.4594 8.98255C15.5208 8.39382 15.279 7.99023 14.9239 7.65031C14.6331 7.37113 14.2723 7.13212 13.9077 6.88526C13.1006 6.34061 12.2878 5.7558 11.9078 4.85066C11.596 4.1101 11.5518 3.13443 12.0921 1.76105C10.5471 2.30668 9.42149 3.16479 8.67683 4.25605C7.7796 5.56869 7.43606 7.20852 7.54258 9.00802C7.54354 9.01291 7.54354 9.01782 7.54354 9.02369V9.02664V9.02762C7.5445 9.0766 7.53969 9.12361 7.52722 9.16769V9.16965C7.50611 9.24802 7.46677 9.31855 7.41399 9.37536L7.41303 9.37634C7.36025 9.43414 7.29308 9.47822 7.21823 9.50467H7.21631C7.17312 9.51937 7.12802 9.52818 7.081 9.53014H7.07717H7.07621C7.07141 9.53014 7.06661 9.53014 7.06085 9.53014C6.18473 9.5321 5.47365 10.259 5.47365 11.1543C5.47365 12.0496 6.18665 12.7775 7.06373 12.7775C7.32858 12.7775 7.54354 12.9969 7.54354 13.2673C7.54354 13.5288 7.34202 13.7433 7.08868 13.7561L7.06373 13.757H5.68381C4.80577 13.757 4.09373 14.4839 4.09373 15.3802C4.09373 16.2765 4.80577 17.0034 5.68381 17.0034V17.983H4.00834C3.1303 17.983 2.4173 18.7108 2.4173 19.6071C2.4173 20.5025 3.1303 21.2303 4.00834 21.2303H18.9917C19.8697 21.2303 20.5827 20.5025 20.5827 19.6071C20.5827 18.7108 19.8697 17.983 18.9917 17.983H17.3162C17.0513 17.983 16.8364 17.7635 16.8364 17.4932C16.8364 17.2228 17.0513 17.0034 17.3162 17.0034C18.1942 17.0034 18.9063 16.2765 18.9063 15.3802C18.9063 14.4839 18.1942 13.757 17.3162 13.757H15.9363V12.7775L15.9766 12.7765C16.8354 12.7549 17.5264 12.0359 17.5264 11.1543C17.5264 10.2599 16.8162 9.53308 15.9411 9.53014C15.9305 9.53014 15.9209 9.53014 15.9104 9.52916C15.8624 9.5272 15.8163 9.5174 15.7732 9.50075H15.7712C15.6964 9.47234 15.6311 9.4263 15.5793 9.36851L15.5783 9.36655C15.5275 9.30875 15.4891 9.23724 15.4699 9.1579V9.15594C15.4594 9.11087 15.4546 9.06288 15.4574 9.0139C15.4574 9.00313 15.4584 8.99234 15.4594 8.98255Z" fill="#000CFF"/>
</g>
</svg>
