<svg width="43" height="49" viewBox="0 0 43 49" fill="none" xmlns="http://www.w3.org/2000/svg">
<g id="cup">
<path id="Vector" fill-rule="evenodd" clip-rule="evenodd" d="M5.34332 3.51145L11.2209 13.8089C5.07772 14.0508 0.166016 18.984 0.166016 25.0252C0.166016 26.4847 0.452753 27.8797 0.973904 29.159H0.669058C0.391379 29.159 0.166016 29.3785 0.166016 29.6488V36.6421C0.166016 41.3764 3.94185 45.2585 8.71773 45.5867V46.6682C8.71773 47.6791 9.56083 48.5 10.5991 48.5H31.7329C32.7712 48.5 33.6143 47.6791 33.6143 46.6682V45.5867C38.3902 45.2585 42.166 41.3764 42.166 36.6421V29.6488C42.166 29.3785 41.9407 29.159 41.663 29.159H41.3581C41.8793 27.8797 42.166 26.4847 42.166 25.0252C42.166 19.0497 37.362 14.1586 31.3124 13.8187C31.4573 13.1721 31.5327 12.5001 31.5327 11.8115C31.5327 6.61968 27.2035 2.40355 21.8703 2.40355C18.0793 2.40355 14.7945 4.53415 13.2129 7.63161L9.55882 1.22999C9.16745 0.545258 8.28009 0.298401 7.57684 0.678481L5.90874 1.58167C5.20549 1.96175 4.95196 2.82672 5.34332 3.51145ZM32.6082 45.6092H9.72382V46.6682C9.72382 47.1384 10.1162 47.5204 10.5991 47.5204H31.7329C32.2158 47.5204 32.6082 47.1384 32.6082 46.6682V45.6092ZM40.5824 30.1386H36.1466C36.1426 30.5471 36.1235 31.0516 36.0631 31.2573C35.8921 31.8372 35.6094 32.1967 35.2753 32.4289C34.8065 32.7551 34.2079 32.8237 33.569 32.8207C33.1555 32.8188 32.7239 32.7903 32.3225 32.8491C32.0116 32.8952 31.7178 32.997 31.4874 33.2566C31.2661 33.5064 31.3184 33.766 31.4251 34.0197C31.6041 34.4429 31.916 34.8583 32.082 35.2481C32.3989 35.9926 32.4402 37.22 32.0871 38.2055C31.8275 38.9284 31.3587 39.5152 30.6906 39.764C30.1815 39.9541 29.5034 39.8855 28.9863 39.7738C28.5718 39.6847 28.1543 39.5368 27.7881 39.3271C26.3775 38.517 26.3665 37.2749 26.5526 35.9574C26.6281 35.4225 26.7337 34.8769 26.7256 34.3616C26.7196 33.9365 26.6361 33.5319 26.3383 33.191C26.1763 33.0049 26.0536 32.8971 25.9167 32.8942C25.8342 32.8922 25.7598 32.9343 25.6843 32.9833C25.5445 33.0734 25.4107 33.1998 25.2759 33.333C24.8583 33.7455 24.4277 34.1931 23.968 34.3342C22.0111 34.9356 20.4457 33.0215 20.6881 31.3582C20.7364 31.0291 20.8159 30.5618 20.9175 30.1386H1.74959H1.74758C1.74557 30.1386 1.74356 30.1386 1.74155 30.1386H1.73651H1.1721V36.6421C1.1721 41.0512 4.84834 44.6296 9.37572 44.6296H32.9563C37.4837 44.6296 41.1599 41.0512 41.1599 36.6421V30.1386H40.5965H40.5905C40.5885 30.1386 40.5865 30.1386 40.5845 30.1386H40.5824ZM29.5397 14.8345C31.4945 16.8456 32.6947 19.561 32.6947 22.5478C32.6947 24.1328 32.3567 25.6413 31.747 27.0088C31.6363 27.2567 31.3405 27.3703 31.086 27.2625C30.8305 27.1558 30.7138 26.8668 30.8244 26.6189C31.3808 25.371 31.6887 23.9936 31.6887 22.5478C31.6887 16.8926 26.9741 12.3013 21.166 12.3013C15.3579 12.3013 10.6434 16.8926 10.6434 22.5478C10.6434 25.0663 11.578 27.3732 13.1294 29.159H21.5795C21.6117 29.158 21.6439 29.161 21.6761 29.1659L21.6811 29.1669L21.6831 29.1678H21.6872C21.7335 29.1776 21.7777 29.1923 21.818 29.2129L21.819 29.2139L21.822 29.2149C21.8974 29.254 21.9588 29.3089 22.0031 29.3735C22.0483 29.4372 22.0785 29.5136 22.0876 29.5949V29.5989V29.5998C22.0926 29.6439 22.0906 29.6899 22.0826 29.735L22.0816 29.7389V29.7409L22.0805 29.7448C22.0745 29.7762 22.0645 29.8065 22.0524 29.8349C21.8783 30.2689 21.7516 31.0369 21.6842 31.4963C21.5332 32.5288 22.4508 33.7739 23.6651 33.3997C23.8432 33.3448 24.0002 33.1979 24.1631 33.0411C24.3945 32.8188 24.6229 32.568 24.8573 32.3701C25.1813 32.0958 25.5284 31.9215 25.8886 31.9146C26.2548 31.9077 26.6693 32.0566 27.1059 32.5572C27.5637 33.0823 27.7227 33.6945 27.7317 34.3479C27.7398 34.9112 27.6321 35.5068 27.5496 36.0906C27.4188 37.0124 27.3132 37.9175 28.2982 38.4827C28.5748 38.6414 28.8917 38.7502 29.2036 38.8177C29.5457 38.8912 29.9944 38.9755 30.3314 38.8491C30.7329 38.6992 30.9804 38.3182 31.1373 37.8823C31.4069 37.1299 31.3949 36.1915 31.1524 35.6233C30.9864 35.2325 30.6735 34.8161 30.4944 34.392C30.2449 33.7993 30.2077 33.1998 30.7268 32.616C31.1293 32.1624 31.6293 31.9606 32.1726 31.8813C32.6243 31.8147 33.1082 31.8392 33.573 31.8411C33.9876 31.8431 34.387 31.8431 34.6908 31.6325C34.8709 31.5061 35.0037 31.2994 35.0963 30.9869C35.1717 30.7303 35.1436 29.9153 35.1425 29.6508C35.1415 29.3804 35.3659 29.16 35.6436 29.159H35.6456H35.6476H40.2675C40.841 27.8944 41.1599 26.4955 41.1599 25.0252C41.1599 19.3827 36.4655 14.7992 30.6755 14.7787C30.6715 14.7797 30.6685 14.7797 30.6645 14.7787H30.6373C30.2661 14.7787 29.8998 14.7973 29.5397 14.8345ZM12.7924 14.8345C12.4322 14.7973 12.066 14.7787 11.6947 14.7787C5.88661 14.7787 1.1721 19.37 1.1721 25.0252C1.1721 26.4955 1.49103 27.8944 2.0645 29.159H11.8497C10.4583 27.3037 9.6373 25.0183 9.6373 22.5478C9.6373 19.561 10.8376 16.8456 12.7924 14.8345ZM30.2832 13.805C30.4421 13.1653 30.5266 12.4982 30.5266 11.8115C30.5266 7.16042 26.6482 3.38313 21.8703 3.38313C18.2212 3.38313 15.0963 5.5872 13.8236 8.70131L15.9988 12.5119C17.5532 11.7508 19.3088 11.3217 21.166 11.3217C24.0002 11.3217 26.5969 12.3199 28.605 13.9735C29.1523 13.8784 29.7127 13.8216 30.2832 13.805ZM15.1205 12.9899L14.3659 11.6675L11.909 12.9978L12.3779 13.8187C12.8356 13.8451 13.2854 13.897 13.727 13.9735C14.1647 13.613 14.6305 13.2838 15.1205 12.9899ZM9.98641 9.62897L11.4201 12.1406L13.8769 10.8113L12.4433 8.29968L9.98641 9.62897ZM7.92595 6.02018L9.49745 8.77282L11.9543 7.44352L10.3828 4.6899L7.92595 6.02018ZM9.89384 3.83374L8.6785 1.70608C8.55777 1.49351 8.28311 1.41709 8.06579 1.53562L6.3977 2.43783C6.18038 2.55538 6.10191 2.82378 6.22264 3.03538L7.43699 5.16402L9.89384 3.83374Z" fill="#000CFF"/>
</g>
</svg>
