<svg width="18" height="20" viewBox="0 0 18 20" fill="none" xmlns="http://www.w3.org/2000/svg">
<g id="icon Persona">
<path id="Vector" d="M9.00434 10.0097C11.3175 10.0097 13.2031 7.94925 13.2031 5.44167C13.2031 2.95355 11.337 1 9.00434 1C6.70088 1 4.80564 2.99245 4.80564 5.46112C4.81534 7.95899 6.70088 10.0097 9.00434 10.0097ZM9.00434 8.54213C7.58533 8.54213 6.37042 7.18141 6.37042 5.46112C6.37042 3.76999 7.56592 2.46762 9.00434 2.46762C10.4623 2.46762 11.6383 3.75054 11.6383 5.44167C11.6383 7.162 10.4428 8.54213 9.00434 8.54213ZM2.90069 19H15.108C16.7214 19 17.4892 18.5141 17.4892 17.4449C17.4892 14.8985 14.2819 11.2149 9.00434 11.2149C3.72683 11.2149 0.509766 14.8985 0.509766 17.4449C0.509766 18.5141 1.27756 19 2.90069 19ZM2.43412 17.5324C2.18145 17.5324 2.07455 17.4644 2.07455 17.2603C2.07455 15.6663 4.54322 12.6825 9.00434 12.6825C13.4655 12.6825 15.9244 15.6663 15.9244 17.2603C15.9244 17.4644 15.8272 17.5324 15.5746 17.5324H2.43412Z" fill="#BEBEBE" stroke="#BEBEBE" stroke-width="0.53"/>
</g>
</svg>
